<?xml version='1.0' encoding='utf-8'?>
<svg xmlns="http://www.w3.org/2000/svg" xmlns:inkscape="http://www.inkscape.org/namespaces/inkscape" version="1.1" width="520" height="485" viewBox="755 190 520 485" preserveAspectRatio="xMidYMid meet"><title>KL Monogram — Layered Vector</title><desc>Editable KL monogram separated into hidden background, black outline, K fill, and L fill layers.</desc><g id="layer_background" inkscape:groupmode="layer" inkscape:label="Background (hidden)" style="display:none"><rect x="755" y="190" width="520" height="485" fill="#FFFFFF" /></g><g id="layer_outline" inkscape:groupmode="layer" inkscape:label="Black outline"><path d="M0 0 C1.107 0.002 2.213 0.003 3.32 0.004 C6.197 0.008 9.074 0.018 11.951 0.029 C14.901 0.039 17.851 0.044 20.801 0.049 C26.563 0.059 32.324 0.076 38.086 0.098 C39.531 2.987 38.695 5.48 38.16 8.547 C38.053 9.197 37.945 9.846 37.834 10.516 C37.487 12.607 37.13 14.696 36.773 16.785 C32.943 39.475 30.879 61.497 30.898 84.535 C30.898 85.409 30.897 86.282 30.896 87.182 C30.898 104.871 31.775 122.462 33.086 140.098 C35.895 137.434 38.046 134.864 40.117 131.562 C40.39 131.132 40.662 130.701 40.943 130.257 C41.829 128.853 42.707 127.444 43.586 126.035 C44.209 125.045 44.833 124.055 45.457 123.065 C46.727 121.048 47.995 119.029 49.261 117.009 C51.412 113.575 53.578 110.152 55.745 106.728 C57.215 104.404 58.682 102.077 60.148 99.75 C62.14 96.591 64.141 93.438 66.148 90.289 C70.984 82.691 75.742 75.069 80.273 67.285 C107.907 19.905 107.907 19.905 134.207 12.926 C142.323 11.041 150.561 11.321 158.086 15.098 C167.546 21.22 171.165 30.733 174.086 41.098 C174.314 41.876 174.542 42.655 174.777 43.457 C178.397 58.137 177.262 75.493 169.657 88.744 C164.642 96.781 158.207 102.28 149.086 105.098 C141.021 106.799 134.247 106.319 127.184 101.91 C118.154 94.956 114.896 84.644 112.086 74.098 C108.019 75.465 105.467 77.264 102.398 80.223 C98.342 84.098 98.342 84.098 96.086 84.098 C95.829 84.66 95.573 85.222 95.309 85.801 C94.201 87.882 92.958 89.681 91.523 91.546 C82.807 102.897 76.44 115.666 71.011 128.855 C69.969 131.38 68.904 133.894 67.84 136.41 C67.087 138.222 66.336 140.035 65.586 141.848 C65.223 142.706 64.86 143.564 64.486 144.448 C64.322 144.852 64.322 144.852 63.492 146.895 C63.196 147.61 62.901 148.325 62.596 149.062 C61.989 151.485 62.166 152.787 63.086 155.098 C64.86 156.336 66.491 157.305 68.398 158.285 C83.122 166.378 95.819 177.98 108.041 189.394 C110.216 191.42 112.398 193.377 114.738 195.211 C120.867 200.04 125.411 206.732 130.086 212.91 C130.572 213.549 131.058 214.188 131.559 214.847 C138.619 224.285 144.414 234.245 149.773 244.723 C150.385 245.909 150.996 247.095 151.607 248.281 C155.557 255.974 159.367 263.728 163.086 271.535 C163.572 272.556 164.059 273.576 164.546 274.597 C164.789 275.106 165.032 275.616 165.282 276.141 C174.31 295.066 183.243 313.734 195.086 331.098 C195.519 331.738 195.951 332.379 196.397 333.039 C203.958 344.169 212.106 355.424 222.723 363.828 C222.948 364.038 222.948 364.038 224.086 365.098 C224.086 365.758 224.086 366.418 224.086 367.098 C224.636 367.334 225.187 367.569 225.754 367.812 C228.133 369.123 229.918 370.584 231.941 372.372 C251.461 389.623 277.471 400.121 303.602 400.301 C304.291 400.308 304.981 400.315 305.691 400.322 C307.906 400.339 310.121 400.346 312.336 400.348 C313.094 400.349 313.852 400.35 314.633 400.351 C326.724 400.34 338.229 399.628 350.086 397.098 C350.434 397.031 350.434 397.031 352.196 396.692 C366.024 394.02 379.819 389.212 388.898 377.98 C390.086 376.098 390.086 376.098 390.086 374.098 C389.784 374.002 389.784 374.002 388.253 373.519 C385.981 372.795 383.711 372.064 381.443 371.327 C380.467 371.011 379.489 370.699 378.511 370.39 C371.486 368.171 364.278 365.811 359.793 359.57 C358.253 356.363 358.173 353.51 359.086 350.098 C362.988 343.341 369.019 339.916 376.086 337.098 C376.977 336.732 377.867 336.365 378.785 335.988 C387.877 333.057 401.479 333.47 410.055 337.773 C417.899 342.888 425.182 349.992 428.086 359.098 C429.507 369.017 428.145 377.153 422.191 385.326 C403.866 409.505 369.616 418.068 341.086 422.098 C290.799 428.954 239.374 425.362 197.367 393.676 C192.26 389.711 187.328 385.542 182.458 381.291 C181.3 380.284 180.128 379.292 178.953 378.305 C169.078 369.938 160.161 360.601 152.167 350.439 C151.09 349.102 149.975 347.808 148.84 346.52 C140.931 337.479 134.379 327.522 127.723 317.548 C126.413 315.587 125.095 313.631 123.77 311.68 C115.195 299.023 107.2 285.979 99.273 272.91 C67.644 220.792 67.644 220.792 49.086 197.098 C48.673 196.563 48.259 196.029 47.833 195.479 C43.163 189.459 38.378 183.519 32.086 179.098 C31.426 179.098 30.766 179.098 30.086 179.098 C29.58 184.723 29.076 190.348 28.573 195.974 C28.34 198.588 28.106 201.202 27.87 203.815 C24.866 237.222 24.866 237.222 24.898 251.41 C24.9 251.994 24.901 252.578 24.902 253.18 C24.988 274.091 29.449 292.291 36.086 312.098 C28.583 312.121 21.081 312.139 13.578 312.149 C10.093 312.155 6.608 312.162 3.123 312.173 C-0.248 312.184 -3.62 312.19 -6.992 312.193 C-8.269 312.194 -9.547 312.198 -10.824 312.203 C-18.588 312.235 -26.194 311.966 -33.914 311.098 C-32.777 305.678 -31.453 300.349 -29.939 295.022 C-25.545 279.53 -22.402 264.001 -19.914 248.098 C-19.835 247.599 -19.756 247.099 -19.675 246.585 C-15.594 220.677 -14.53 194.96 -14.602 168.785 C-14.604 167.295 -14.607 165.805 -14.609 164.315 C-14.665 139.466 -15.478 114.84 -17.914 90.098 C-17.976 89.466 -18.038 88.834 -18.102 88.183 C-20.031 68.635 -22.082 49.1 -24.206 29.572 C-24.267 29.002 -24.329 28.432 -24.393 27.845 C-24.827 23.867 -25.276 19.891 -25.739 15.917 C-26.008 13.119 -26.024 10.343 -25.977 7.535 C-25.972 7.003 -25.968 6.472 -25.963 5.924 C-25.951 4.648 -25.933 3.373 -25.914 2.098 C-17.471 -0.188 -8.684 -0.044 0 0 Z " transform="translate(817.9140625,218.90234375)" id="outline_k" fill="#000000" stroke="#000000" stroke-width="20" stroke-linejoin="round" stroke-linecap="round" />
    <path d="M0 0 C-0.578 9.406 -1.501 18.732 -2.614 28.089 C-8.942 82.024 -10.283 135.915 -5 190 C-4.937 190.656 -4.875 191.312 -4.81 191.988 C-0.235 239.691 -0.235 239.691 12.773 251.41 C29.322 263.226 48.466 265.145 68.238 262.277 C91.648 258.202 110.486 245.419 125.574 227.582 C126.045 227.06 126.515 226.538 127 226 C127.33 226 127.66 226 128 226 C128.528 232.555 129.05 239.11 129.565 245.666 C129.804 248.712 130.045 251.757 130.291 254.802 C130.529 257.752 130.762 260.703 130.991 263.653 C131.079 264.767 131.168 265.881 131.259 266.995 C131.756 273.075 132.085 279.126 132.117 285.228 C132.122 285.791 132.127 286.353 132.133 286.933 C132.122 290.878 132.122 290.878 131 292 C129.248 292.198 127.526 292.335 125.768 292.433 C125.217 292.468 124.666 292.502 124.099 292.537 C122.243 292.652 120.387 292.76 118.531 292.867 C117.208 292.947 115.885 293.027 114.561 293.108 C110.96 293.325 107.359 293.535 103.757 293.744 C101.504 293.875 99.25 294.007 96.996 294.14 C74.924 295.437 52.847 296.613 30.761 297.652 C28.714 297.749 26.667 297.847 24.621 297.946 C8.733 298.711 -7.091 299.204 -23 299 C-24.584 289.734 -26.098 280.459 -27.512 271.165 C-29.21 260.015 -30.963 248.873 -32.734 237.734 C-32.978 236.201 -33.222 234.667 -33.465 233.133 C-33.588 232.362 -33.711 231.591 -33.837 230.796 C-33.961 230.017 -34.084 229.238 -34.212 228.435 C-34.337 227.649 -34.462 226.863 -34.59 226.053 C-38.848 199.251 -43.032 172.443 -46.959 145.592 C-47.347 142.939 -47.736 140.286 -48.125 137.633 C-48.201 137.116 -48.277 136.599 -48.355 136.066 C-50.231 123.301 -52.237 110.557 -54.25 97.812 C-54.917 93.587 -55.584 89.362 -56.25 85.137 C-56.328 84.641 -56.406 84.145 -56.487 83.634 C-58.243 72.494 -59.945 61.348 -61.542 50.184 C-61.878 47.843 -62.219 45.503 -62.563 43.164 C-63.059 39.788 -63.547 36.41 -64.029 33.032 C-64.216 31.736 -64.405 30.439 -64.596 29.143 C-64.859 27.358 -65.112 25.572 -65.363 23.785 C-65.443 23.257 -65.523 22.73 -65.605 22.186 C-66.014 19.194 -65.947 16.874 -65 14 C-51.22 10.642 -37.42 7.364 -23.601 4.17 C-22.038 3.807 -20.475 3.443 -18.912 3.077 C-16.698 2.559 -14.482 2.048 -12.266 1.539 C-11.605 1.383 -10.945 1.227 -10.264 1.066 C-6.77 0.272 -3.611 -0.17 0 0 Z " transform="translate(1065,231)" id="outline_l" fill="#000000" stroke="#000000" stroke-width="20" stroke-linejoin="round" stroke-linecap="round" />
    </g><g id="layer_k" inkscape:groupmode="layer" inkscape:label="K — yellow fill"><path d="M0 0 C1.107 0.002 2.213 0.003 3.32 0.004 C6.197 0.008 9.074 0.018 11.951 0.029 C14.901 0.039 17.851 0.044 20.801 0.049 C26.563 0.059 32.324 0.076 38.086 0.098 C39.531 2.987 38.695 5.48 38.16 8.547 C38.053 9.197 37.945 9.846 37.834 10.516 C37.487 12.607 37.13 14.696 36.773 16.785 C32.943 39.475 30.879 61.497 30.898 84.535 C30.898 85.409 30.897 86.282 30.896 87.182 C30.898 104.871 31.775 122.462 33.086 140.098 C35.895 137.434 38.046 134.864 40.117 131.562 C40.39 131.132 40.662 130.701 40.943 130.257 C41.829 128.853 42.707 127.444 43.586 126.035 C44.209 125.045 44.833 124.055 45.457 123.065 C46.727 121.048 47.995 119.029 49.261 117.009 C51.412 113.575 53.578 110.152 55.745 106.728 C57.215 104.404 58.682 102.077 60.148 99.75 C62.14 96.591 64.141 93.438 66.148 90.289 C70.984 82.691 75.742 75.069 80.273 67.285 C107.907 19.905 107.907 19.905 134.207 12.926 C142.323 11.041 150.561 11.321 158.086 15.098 C167.546 21.22 171.165 30.733 174.086 41.098 C174.314 41.876 174.542 42.655 174.777 43.457 C178.397 58.137 177.262 75.493 169.657 88.744 C164.642 96.781 158.207 102.28 149.086 105.098 C141.021 106.799 134.247 106.319 127.184 101.91 C118.154 94.956 114.896 84.644 112.086 74.098 C108.019 75.465 105.467 77.264 102.398 80.223 C98.342 84.098 98.342 84.098 96.086 84.098 C95.829 84.66 95.573 85.222 95.309 85.801 C94.201 87.882 92.958 89.681 91.523 91.546 C82.807 102.897 76.44 115.666 71.011 128.855 C69.969 131.38 68.904 133.894 67.84 136.41 C67.087 138.222 66.336 140.035 65.586 141.848 C65.223 142.706 64.86 143.564 64.486 144.448 C64.322 144.852 64.322 144.852 63.492 146.895 C63.196 147.61 62.901 148.325 62.596 149.062 C61.989 151.485 62.166 152.787 63.086 155.098 C64.86 156.336 66.491 157.305 68.398 158.285 C83.122 166.378 95.819 177.98 108.041 189.394 C110.216 191.42 112.398 193.377 114.738 195.211 C120.867 200.04 125.411 206.732 130.086 212.91 C130.572 213.549 131.058 214.188 131.559 214.847 C138.619 224.285 144.414 234.245 149.773 244.723 C150.385 245.909 150.996 247.095 151.607 248.281 C155.557 255.974 159.367 263.728 163.086 271.535 C163.572 272.556 164.059 273.576 164.546 274.597 C164.789 275.106 165.032 275.616 165.282 276.141 C174.31 295.066 183.243 313.734 195.086 331.098 C195.519 331.738 195.951 332.379 196.397 333.039 C203.958 344.169 212.106 355.424 222.723 363.828 C222.948 364.038 222.948 364.038 224.086 365.098 C224.086 365.758 224.086 366.418 224.086 367.098 C224.636 367.334 225.187 367.569 225.754 367.812 C228.133 369.123 229.918 370.584 231.941 372.372 C251.461 389.623 277.471 400.121 303.602 400.301 C304.291 400.308 304.981 400.315 305.691 400.322 C307.906 400.339 310.121 400.346 312.336 400.348 C313.094 400.349 313.852 400.35 314.633 400.351 C326.724 400.34 338.229 399.628 350.086 397.098 C350.434 397.031 350.434 397.031 352.196 396.692 C366.024 394.02 379.819 389.212 388.898 377.98 C390.086 376.098 390.086 376.098 390.086 374.098 C389.784 374.002 389.784 374.002 388.253 373.519 C385.981 372.795 383.711 372.064 381.443 371.327 C380.467 371.011 379.489 370.699 378.511 370.39 C371.486 368.171 364.278 365.811 359.793 359.57 C358.253 356.363 358.173 353.51 359.086 350.098 C362.988 343.341 369.019 339.916 376.086 337.098 C376.977 336.732 377.867 336.365 378.785 335.988 C387.877 333.057 401.479 333.47 410.055 337.773 C417.899 342.888 425.182 349.992 428.086 359.098 C429.507 369.017 428.145 377.153 422.191 385.326 C403.866 409.505 369.616 418.068 341.086 422.098 C290.799 428.954 239.374 425.362 197.367 393.676 C192.26 389.711 187.328 385.542 182.458 381.291 C181.3 380.284 180.128 379.292 178.953 378.305 C169.078 369.938 160.161 360.601 152.167 350.439 C151.09 349.102 149.975 347.808 148.84 346.52 C140.931 337.479 134.379 327.522 127.723 317.548 C126.413 315.587 125.095 313.631 123.77 311.68 C115.195 299.023 107.2 285.979 99.273 272.91 C67.644 220.792 67.644 220.792 49.086 197.098 C48.673 196.563 48.259 196.029 47.833 195.479 C43.163 189.459 38.378 183.519 32.086 179.098 C31.426 179.098 30.766 179.098 30.086 179.098 C29.58 184.723 29.076 190.348 28.573 195.974 C28.34 198.588 28.106 201.202 27.87 203.815 C24.866 237.222 24.866 237.222 24.898 251.41 C24.9 251.994 24.901 252.578 24.902 253.18 C24.988 274.091 29.449 292.291 36.086 312.098 C28.583 312.121 21.081 312.139 13.578 312.149 C10.093 312.155 6.608 312.162 3.123 312.173 C-0.248 312.184 -3.62 312.19 -6.992 312.193 C-8.269 312.194 -9.547 312.198 -10.824 312.203 C-18.588 312.235 -26.194 311.966 -33.914 311.098 C-32.777 305.678 -31.453 300.349 -29.939 295.022 C-25.545 279.53 -22.402 264.001 -19.914 248.098 C-19.835 247.599 -19.756 247.099 -19.675 246.585 C-15.594 220.677 -14.53 194.96 -14.602 168.785 C-14.604 167.295 -14.607 165.805 -14.609 164.315 C-14.665 139.466 -15.478 114.84 -17.914 90.098 C-17.976 89.466 -18.038 88.834 -18.102 88.183 C-20.031 68.635 -22.082 49.1 -24.206 29.572 C-24.267 29.002 -24.329 28.432 -24.393 27.845 C-24.827 23.867 -25.276 19.891 -25.739 15.917 C-26.008 13.119 -26.024 10.343 -25.977 7.535 C-25.972 7.003 -25.968 6.472 -25.963 5.924 C-25.951 4.648 -25.933 3.373 -25.914 2.098 C-17.471 -0.188 -8.684 -0.044 0 0 Z " transform="translate(817.9140625,218.90234375)" id="letter_k" fill="#FFF200" stroke="none" />
    </g><g id="layer_l" inkscape:groupmode="layer" inkscape:label="L — yellow fill"><path d="M0 0 C-0.578 9.406 -1.501 18.732 -2.614 28.089 C-8.942 82.024 -10.283 135.915 -5 190 C-4.937 190.656 -4.875 191.312 -4.81 191.988 C-0.235 239.691 -0.235 239.691 12.773 251.41 C29.322 263.226 48.466 265.145 68.238 262.277 C91.648 258.202 110.486 245.419 125.574 227.582 C126.045 227.06 126.515 226.538 127 226 C127.33 226 127.66 226 128 226 C128.528 232.555 129.05 239.11 129.565 245.666 C129.804 248.712 130.045 251.757 130.291 254.802 C130.529 257.752 130.762 260.703 130.991 263.653 C131.079 264.767 131.168 265.881 131.259 266.995 C131.756 273.075 132.085 279.126 132.117 285.228 C132.122 285.791 132.127 286.353 132.133 286.933 C132.122 290.878 132.122 290.878 131 292 C129.248 292.198 127.526 292.335 125.768 292.433 C125.217 292.468 124.666 292.502 124.099 292.537 C122.243 292.652 120.387 292.76 118.531 292.867 C117.208 292.947 115.885 293.027 114.561 293.108 C110.96 293.325 107.359 293.535 103.757 293.744 C101.504 293.875 99.25 294.007 96.996 294.14 C74.924 295.437 52.847 296.613 30.761 297.652 C28.714 297.749 26.667 297.847 24.621 297.946 C8.733 298.711 -7.091 299.204 -23 299 C-24.584 289.734 -26.098 280.459 -27.512 271.165 C-29.21 260.015 -30.963 248.873 -32.734 237.734 C-32.978 236.201 -33.222 234.667 -33.465 233.133 C-33.588 232.362 -33.711 231.591 -33.837 230.796 C-33.961 230.017 -34.084 229.238 -34.212 228.435 C-34.337 227.649 -34.462 226.863 -34.59 226.053 C-38.848 199.251 -43.032 172.443 -46.959 145.592 C-47.347 142.939 -47.736 140.286 -48.125 137.633 C-48.201 137.116 -48.277 136.599 -48.355 136.066 C-50.231 123.301 -52.237 110.557 -54.25 97.812 C-54.917 93.587 -55.584 89.362 -56.25 85.137 C-56.328 84.641 -56.406 84.145 -56.487 83.634 C-58.243 72.494 -59.945 61.348 -61.542 50.184 C-61.878 47.843 -62.219 45.503 -62.563 43.164 C-63.059 39.788 -63.547 36.41 -64.029 33.032 C-64.216 31.736 -64.405 30.439 -64.596 29.143 C-64.859 27.358 -65.112 25.572 -65.363 23.785 C-65.443 23.257 -65.523 22.73 -65.605 22.186 C-66.014 19.194 -65.947 16.874 -65 14 C-51.22 10.642 -37.42 7.364 -23.601 4.17 C-22.038 3.807 -20.475 3.443 -18.912 3.077 C-16.698 2.559 -14.482 2.048 -12.266 1.539 C-11.605 1.383 -10.945 1.227 -10.264 1.066 C-6.77 0.272 -3.611 -0.17 0 0 Z " transform="translate(1065,231)" id="letter_l" fill="#FFF200" stroke="none" />
    </g><metadata>Palette: Black #000000; Yellow #FFF200. Transparent background by default.</metadata></svg>